<mxfile host="65bd71144e">
    <diagram id="evOunQs8mL-qAupMfRAL" name="ER Diagram">
        <mxGraphModel dx="874" dy="532" grid="1" gridSize="10" guides="1" tooltips="1" connect="1" arrows="1" fold="1" page="1" pageScale="1" pageWidth="827" pageHeight="1169" math="0" shadow="0">
            <root>
                <mxCell id="0"/>
                <mxCell id="1" parent="0"/>
                <mxCell id="2" value="Usuarios" style="shape=swimlane;startSize=20;" vertex="1" parent="1">
                    <mxGeometry x="120" y="40" width="160" height="120" as="geometry"/>
                </mxCell>
                <mxCell id="3" value="id" style="text;strokeColor=none;fillColor=none;align=left;verticalAlign=middle;" vertex="1" parent="2">
                    <mxGeometry x="10" y="30" width="140" height="20" as="geometry"/>
                </mxCell>
                <mxCell id="4" value="nombre" style="text;strokeColor=none;fillColor=none;align=left;verticalAlign=middle;" vertex="1" parent="2">
                    <mxGeometry x="10" y="50" width="140" height="20" as="geometry"/>
                </mxCell>
                <mxCell id="5" value="email" style="text;strokeColor=none;fillColor=none;align=left;verticalAlign=middle;" vertex="1" parent="2">
                    <mxGeometry x="10" y="70" width="140" height="20" as="geometry"/>
                </mxCell>
                <mxCell id="6" value="contraseña" style="text;strokeColor=none;fillColor=none;align=left;verticalAlign=middle;" vertex="1" parent="2">
                    <mxGeometry x="10" y="90" width="140" height="20" as="geometry"/>
                </mxCell>
                <mxCell id="7" value="Tareas" style="shape=swimlane;startSize=20;" vertex="1" parent="1">
                    <mxGeometry x="320" y="40" width="160" height="180" as="geometry"/>
                </mxCell>
                <mxCell id="8" value="id" style="text;strokeColor=none;fillColor=none;align=left;verticalAlign=middle;" vertex="1" parent="7">
                    <mxGeometry x="10" y="30" width="140" height="20" as="geometry"/>
                </mxCell>
                <mxCell id="9" value="título" style="text;strokeColor=none;fillColor=none;align=left;verticalAlign=middle;" vertex="1" parent="7">
                    <mxGeometry x="10" y="50" width="140" height="20" as="geometry"/>
                </mxCell>
                <mxCell id="10" value="descripción" style="text;strokeColor=none;fillColor=none;align=left;verticalAlign=middle;" vertex="1" parent="7">
                    <mxGeometry x="10" y="70" width="140" height="20" as="geometry"/>
                </mxCell>
                <mxCell id="11" value="estado" style="text;strokeColor=none;fillColor=none;align=left;verticalAlign=middle;" vertex="1" parent="7">
                    <mxGeometry x="10" y="90" width="140" height="20" as="geometry"/>
                </mxCell>
                <mxCell id="12" value="fecha_creación" style="text;strokeColor=none;fillColor=none;align=left;verticalAlign=middle;" vertex="1" parent="7">
                    <mxGeometry x="10" y="110" width="140" height="20" as="geometry"/>
                </mxCell>
                <mxCell id="13" value="fecha_límite" style="text;strokeColor=none;fillColor=none;align=left;verticalAlign=middle;" vertex="1" parent="7">
                    <mxGeometry x="10" y="130" width="140" height="20" as="geometry"/>
                </mxCell>
                <mxCell id="14" value="categoría" style="text;strokeColor=none;fillColor=none;align=left;verticalAlign=middle;" vertex="1" parent="7">
                    <mxGeometry x="10" y="150" width="140" height="20" as="geometry"/>
                </mxCell>
                <mxCell id="15" value="usuario_id" style="text;strokeColor=none;fillColor=none;align=left;verticalAlign=middle;" vertex="1" parent="7">
                    <mxGeometry x="10" y="170" width="140" height="20" as="geometry"/>
                </mxCell>
                <mxCell id="16" style="edgeStyle=orthogonalEdgeStyle;rounded=0;orthogonalLoop=1;" edge="1" parent="1" source="15" target="2">
                    <mxGeometry relative="1" as="geometry"/>
                </mxCell>
            </root>
        </mxGraphModel>
    </diagram>
</mxfile>